<svg xmlns="http://www.w3.org/2000/svg" viewBox="0 0 24 24" width="24" height="24">
  <path fill="#FC6D26" d="M12 21.42l3.684-11.333H8.316L12 21.42z"/>
  <path fill="#E24329" d="M12 21.42l-3.684-11.333H1.684L12 21.42z"/>
  <path fill="#FC6D26" d="M1.684 10.087L.266 14.285a.91.91 0 0 0 .329 1.018L12 21.42 1.684 10.087z"/>
  <path fill="#FCA326" d="M1.684 10.087h6.632L6.947 3.287c-.2-.615-1.056-.615-1.257 0L1.684 10.087z"/>
  <path fill="#E24329" d="M12 21.42l3.684-11.333h6.632L12 21.42z"/>
  <path fill="#FC6D26" d="M22.316 10.087l1.418 4.198a.91.91 0 0 1-.329 1.018L12 21.42l10.316-11.333z"/>
  <path fill="#FCA326" d="M22.316 10.087h-6.632L17.053 3.287c.2-.615 1.056-.615 1.257 0l6.006 6.8z"/>
</svg>